<svg width="384" height="384" viewBox="0 0 384 384" fill="none" xmlns="http://www.w3.org/2000/svg">
<g clip-path="url(#clip0_58_47)">
<mask id="mask0_58_47" style="mask-type:alpha" maskUnits="userSpaceOnUse" x="0" y="0" width="384" height="384">
<circle cx="192" cy="192" r="192" fill="#D9D9D9"/>
</mask>
<g mask="url(#mask0_58_47)">
<path d="M384 0H0V384H384V0Z" fill="#5ABCBB"/>
<path d="M289.653 305.595C276.507 280.712 191.997 265.098 191.997 265.098C191.997 265.098 107.491 280.712 94.3449 305.595C84.631 340.126 76.5034 384 76.5034 384H191.997H307.494C307.494 384 302.009 336.956 289.653 305.595Z" fill="#F1C9A5"/>
<path d="M191.997 265.098C191.997 265.098 276.506 280.712 289.652 305.595C302.007 336.956 307.494 384 307.494 384H191.997V265.098Z" fill="#E4B692"/>
<path d="M215.006 214.51H168.994V291.514H215.006V214.51Z" fill="#F1C9A5"/>
<path d="M215.006 214.51H191.997V291.514H215.006V214.51Z" fill="#E4B692"/>
<path opacity="0.1" d="M168.994 250.193C173.134 262.071 189.831 268.882 202.095 268.882C206.534 268.882 210.85 268.138 215.006 266.777V214.51H168.994V250.193Z" fill="#DDAC8C"/>
<path d="M251.154 165.922C251.154 117.824 224.669 90.4757 191.997 90.4757C159.328 90.4757 132.843 117.824 132.843 165.922C132.843 230.615 159.328 253.014 191.997 253.014C224.672 253.014 251.154 227.919 251.154 165.922Z" fill="#F1C9A5"/>
<path d="M251.154 165.922C251.154 117.824 224.669 90.4757 191.997 90.4757C159.328 90.4757 132.843 117.824 132.843 165.922C132.843 230.615 159.328 253.014 191.997 253.014C224.672 253.014 251.154 227.919 251.154 165.922Z" fill="#F1C9A5"/>
<path d="M119.599 177.517C117.787 164.389 125.017 152.84 135.732 151.722C146.466 150.605 156.622 160.353 158.42 173.481C160.229 186.598 152.983 198.149 142.265 199.272C131.543 200.382 121.397 190.644 119.599 177.517Z" fill="#F1C9A5"/>
<path d="M251.154 165.922C251.154 117.824 224.669 90.4757 191.997 90.4757V253.014C224.672 253.014 251.154 227.919 251.154 165.922Z" fill="#E4B692"/>
<path d="M289.653 305.595C281.228 289.65 243.525 277.521 217.508 270.858C216.497 284.073 205.472 294.488 191.997 294.488C178.523 294.488 167.501 284.073 166.489 270.858C140.473 277.521 102.769 289.65 94.3449 305.595C84.631 340.126 76.5034 384 76.5034 384H191.997H307.494C307.494 384 302.009 336.956 289.653 305.595Z" fill="#102F41"/>
<path d="M142.851 223.17C155.719 245.024 168.534 248.403 168.534 248.403L172.416 260.996H166.841H162.472L160.049 255.564H154.712L152.771 248.898L147.485 251.12L146.227 243.713H141.373L139.675 237.54L136.037 239.269L132.398 233.589L127.305 230.874L129.731 222.479H123.669L123.913 213.589L119.302 215.072L117.605 207.172L109.843 204.209L116.633 197.294L113.238 196.06L116.874 189.643L114.207 188.409L113.72 180.753L105.96 179.272L110.327 172.358L104.988 163.963L111.297 160.504L107.901 152.112L109.84 144.209L102.565 138.282L112.75 137.297V129.89L115.664 123.471L112.75 118.039L118.089 113.595L112.75 109.149L118.571 103.222V99.7659L123.91 95.3221L121.484 88.4074L131.182 90.383L131.67 78.532L138.947 81.0002L141.37 76.0638L149.617 77.0516C149.617 77.0516 147.679 73.1004 151.071 73.1004C154.466 73.1004 162.715 76.559 162.715 76.559L167.08 70.6322L176.78 77.5469L180.178 70.6322L186.484 78.0394L192.4 70.6322C192.4 70.6322 192.4 112.115 192.4 137.792C184.733 137.136 180.66 137.136 163.846 130.549C158.028 134.501 139.27 161.497 139.27 164.13C139.27 166.762 136.034 193.761 136.034 193.761L132.66 177.66C132.66 177.649 136.024 211.573 142.851 223.17Z" fill="#231F20"/>
<path d="M240.011 223.17C227.646 245.024 215.334 248.403 215.334 248.403L211.605 260.996H216.96H221.158L223.488 255.564H228.618L230.479 248.898L235.562 251.12L236.772 243.713H241.435L243.064 237.54L246.56 239.269L250.056 233.589L254.95 230.874L252.619 222.479H258.443L258.21 213.589L262.64 215.072L264.269 207.172L271.726 204.209L265.198 197.294L268.464 196.06L264.968 189.643L267.532 188.409L268 180.753L275.453 179.272L271.258 172.358L276.387 163.963L270.328 160.504L273.588 152.112L271.726 144.209L278.718 138.282L268.932 137.297V129.89L266.133 123.471L268.932 118.039L263.803 113.595L268.932 109.149L263.339 103.222V99.7659L258.212 95.3221L260.545 88.4074L251.223 90.383L250.755 78.532L243.763 81.0002L241.433 76.0638L233.509 77.0516C233.509 77.0516 235.374 73.1004 232.113 73.1004C228.851 73.1004 220.925 76.559 220.925 76.559L216.73 70.6322L207.408 77.5469L204.145 70.6322L198.086 78.0394L192.403 70.6322C192.403 70.6322 192.403 112.115 192.403 137.792C199.765 137.136 203.682 137.136 219.836 130.549C225.429 134.501 243.451 161.497 243.451 164.13C243.451 166.762 246.56 193.761 246.56 193.761L249.804 177.66C249.804 177.649 246.573 211.573 240.011 223.17Z" fill="#231F20"/>
<path d="M119.599 177.517C117.787 164.389 125.017 152.84 135.732 151.722C146.466 150.605 156.622 160.353 158.42 173.481C160.229 186.598 152.983 198.149 142.265 199.272C131.543 200.382 121.397 190.644 119.599 177.517Z" fill="#F1C9A5"/>
<path d="M242.153 199.272C231.428 198.149 224.19 186.595 226.004 173.481C227.797 160.353 237.956 150.605 248.681 151.722C259.399 152.84 266.628 164.389 264.82 177.517C263.021 190.644 252.876 200.382 242.153 199.272Z" fill="#E4B692"/>
</g>
</g>
<defs>
<clipPath id="clip0_58_47">
<rect width="384" height="384" fill="white"/>
</clipPath>
</defs>
</svg>
